<svg width="364.000000" height="364.000000" viewBox="0 0 364 364" fill="none" xmlns="http://www.w3.org/2000/svg" xmlns:xlink="http://www.w3.org/1999/xlink">
	<desc>
			Created with Pixso.
	</desc>
	<defs/>
	<path id="Union" d="M0 2C0 0.895508 0.895508 0 2 0C3.10449 0 4 0.895508 4 2C4 3.10449 3.10449 4 2 4C0.895508 4 0 3.10449 0 2ZM20 2C20 0.895508 20.8955 0 22 0C23.1045 0 24 0.895508 24 2C24 3.10449 23.1045 4 22 4C20.8955 4 20 3.10449 20 2ZM40 2C40 0.895508 40.8955 0 42 0C43.1045 0 44 0.895508 44 2C44 3.10449 43.1045 4 42 4C40.8955 4 40 3.10449 40 2ZM60 2C60 0.895508 60.8955 0 62 0C63.1045 0 64 0.895508 64 2C64 3.10449 63.1045 4 62 4C60.8955 4 60 3.10449 60 2ZM80 2C80 0.895508 80.8955 0 82 0C83.1045 0 84 0.895508 84 2C84 3.10449 83.1045 4 82 4C80.8955 4 80 3.10449 80 2ZM100 2C100 0.895508 100.896 0 102 0C103.104 0 104 0.895508 104 2C104 3.10449 103.104 4 102 4C100.896 4 100 3.10449 100 2ZM120 2C120 0.895508 120.896 0 122 0C123.104 0 124 0.895508 124 2C124 3.10449 123.104 4 122 4C120.896 4 120 3.10449 120 2ZM140 2C140 0.895508 140.896 0 142 0C143.104 0 144 0.895508 144 2C144 3.10449 143.104 4 142 4C140.896 4 140 3.10449 140 2ZM160 2C160 0.895508 160.896 0 162 0C163.104 0 164 0.895508 164 2C164 3.10449 163.104 4 162 4C160.896 4 160 3.10449 160 2ZM180 2C180 0.895508 180.896 0 182 0C183.104 0 184 0.895508 184 2C184 3.10449 183.104 4 182 4C180.896 4 180 3.10449 180 2ZM200 2C200 0.895508 200.896 0 202 0C203.104 0 204 0.895508 204 2C204 3.10449 203.104 4 202 4C200.896 4 200 3.10449 200 2ZM220 2C220 0.895508 220.896 0 222 0C223.104 0 224 0.895508 224 2C224 3.10449 223.104 4 222 4C220.896 4 220 3.10449 220 2ZM240 2C240 0.895508 240.896 0 242 0C243.104 0 244 0.895508 244 2C244 3.10449 243.104 4 242 4C240.896 4 240 3.10449 240 2ZM260 2C260 0.895508 260.896 0 262 0C263.104 0 264 0.895508 264 2C264 3.10449 263.104 4 262 4C260.896 4 260 3.10449 260 2ZM280 2C280 0.895508 280.896 0 282 0C283.104 0 284 0.895508 284 2C284 3.10449 283.104 4 282 4C280.896 4 280 3.10449 280 2ZM300 2C300 0.895508 300.896 0 302 0C303.104 0 304 0.895508 304 2C304 3.10449 303.104 4 302 4C300.896 4 300 3.10449 300 2ZM320 2C320 0.895508 320.896 0 322 0C323.104 0 324 0.895508 324 2C324 3.10449 323.104 4 322 4C320.896 4 320 3.10449 320 2ZM340 2C340 0.895508 340.896 0 342 0C343.104 0 344 0.895508 344 2C344 3.10449 343.104 4 342 4C340.896 4 340 3.10449 340 2ZM360 2C360 0.895508 360.896 0 362 0C363.104 0 364 0.895508 364 2C364 3.10449 363.104 4 362 4C360.896 4 360 3.10449 360 2ZM0 22C0 20.8955 0.895508 20 2 20C3.10449 20 4 20.8955 4 22C4 23.1045 3.10449 24 2 24C0.895508 24 0 23.1045 0 22ZM20 22C20 20.8955 20.8955 20 22 20C23.1045 20 24 20.8955 24 22C24 23.1045 23.1045 24 22 24C20.8955 24 20 23.1045 20 22ZM40 22C40 20.8955 40.8955 20 42 20C43.1045 20 44 20.8955 44 22C44 23.1045 43.1045 24 42 24C40.8955 24 40 23.1045 40 22ZM60 22C60 20.8955 60.8955 20 62 20C63.1045 20 64 20.8955 64 22C64 23.1045 63.1045 24 62 24C60.8955 24 60 23.1045 60 22ZM80 22C80 20.8955 80.8955 20 82 20C83.1045 20 84 20.8955 84 22C84 23.1045 83.1045 24 82 24C80.8955 24 80 23.1045 80 22ZM100 22C100 20.8955 100.896 20 102 20C103.104 20 104 20.8955 104 22C104 23.1045 103.104 24 102 24C100.896 24 100 23.1045 100 22ZM120 22C120 20.8955 120.896 20 122 20C123.104 20 124 20.8955 124 22C124 23.1045 123.104 24 122 24C120.896 24 120 23.1045 120 22ZM140 22C140 20.8955 140.896 20 142 20C143.104 20 144 20.8955 144 22C144 23.1045 143.104 24 142 24C140.896 24 140 23.1045 140 22ZM160 22C160 20.8955 160.896 20 162 20C163.104 20 164 20.8955 164 22C164 23.1045 163.104 24 162 24C160.896 24 160 23.1045 160 22ZM180 22C180 20.8955 180.896 20 182 20C183.104 20 184 20.8955 184 22C184 23.1045 183.104 24 182 24C180.896 24 180 23.1045 180 22ZM200 22C200 20.8955 200.896 20 202 20C203.104 20 204 20.8955 204 22C204 23.1045 203.104 24 202 24C200.896 24 200 23.1045 200 22ZM220 22C220 20.8955 220.896 20 222 20C223.104 20 224 20.8955 224 22C224 23.1045 223.104 24 222 24C220.896 24 220 23.1045 220 22ZM240 22C240 20.8955 240.896 20 242 20C243.104 20 244 20.8955 244 22C244 23.1045 243.104 24 242 24C240.896 24 240 23.1045 240 22ZM260 22C260 20.8955 260.896 20 262 20C263.104 20 264 20.8955 264 22C264 23.1045 263.104 24 262 24C260.896 24 260 23.1045 260 22ZM280 22C280 20.8955 280.896 20 282 20C283.104 20 284 20.8955 284 22C284 23.1045 283.104 24 282 24C280.896 24 280 23.1045 280 22ZM300 22C300 20.8955 300.896 20 302 20C303.104 20 304 20.8955 304 22C304 23.1045 303.104 24 302 24C300.896 24 300 23.1045 300 22ZM320 22C320 20.8955 320.896 20 322 20C323.104 20 324 20.8955 324 22C324 23.1045 323.104 24 322 24C320.896 24 320 23.1045 320 22ZM340 22C340 20.8955 340.896 20 342 20C343.104 20 344 20.8955 344 22C344 23.1045 343.104 24 342 24C340.896 24 340 23.1045 340 22ZM360 22C360 20.8955 360.896 20 362 20C363.104 20 364 20.8955 364 22C364 23.1045 363.104 24 362 24C360.896 24 360 23.1045 360 22ZM0 42C0 40.8955 0.895508 40 2 40C3.10449 40 4 40.8955 4 42C4 43.1045 3.10449 44 2 44C0.895508 44 0 43.1045 0 42ZM20 42C20 40.8955 20.8955 40 22 40C23.1045 40 24 40.8955 24 42C24 43.1045 23.1045 44 22 44C20.8955 44 20 43.1045 20 42ZM40 42C40 40.8955 40.8955 40 42 40C43.1045 40 44 40.8955 44 42C44 43.1045 43.1045 44 42 44C40.8955 44 40 43.1045 40 42ZM60 42C60 40.8955 60.8955 40 62 40C63.1045 40 64 40.8955 64 42C64 43.1045 63.1045 44 62 44C60.8955 44 60 43.1045 60 42ZM80 42C80 40.8955 80.8955 40 82 40C83.1045 40 84 40.8955 84 42C84 43.1045 83.1045 44 82 44C80.8955 44 80 43.1045 80 42ZM100 42C100 40.8955 100.896 40 102 40C103.104 40 104 40.8955 104 42C104 43.1045 103.104 44 102 44C100.896 44 100 43.1045 100 42ZM120 42C120 40.8955 120.896 40 122 40C123.104 40 124 40.8955 124 42C124 43.1045 123.104 44 122 44C120.896 44 120 43.1045 120 42ZM140 42C140 40.8955 140.896 40 142 40C143.104 40 144 40.8955 144 42C144 43.1045 143.104 44 142 44C140.896 44 140 43.1045 140 42ZM160 42C160 40.8955 160.896 40 162 40C163.104 40 164 40.8955 164 42C164 43.1045 163.104 44 162 44C160.896 44 160 43.1045 160 42ZM180 42C180 40.8955 180.896 40 182 40C183.104 40 184 40.8955 184 42C184 43.1045 183.104 44 182 44C180.896 44 180 43.1045 180 42ZM200 42C200 40.8955 200.896 40 202 40C203.104 40 204 40.8955 204 42C204 43.1045 203.104 44 202 44C200.896 44 200 43.1045 200 42ZM220 42C220 40.8955 220.896 40 222 40C223.104 40 224 40.8955 224 42C224 43.1045 223.104 44 222 44C220.896 44 220 43.1045 220 42ZM240 42C240 40.8955 240.896 40 242 40C243.104 40 244 40.8955 244 42C244 43.1045 243.104 44 242 44C240.896 44 240 43.1045 240 42ZM260 42C260 40.8955 260.896 40 262 40C263.104 40 264 40.8955 264 42C264 43.1045 263.104 44 262 44C260.896 44 260 43.1045 260 42ZM280 42C280 40.8955 280.896 40 282 40C283.104 40 284 40.8955 284 42C284 43.1045 283.104 44 282 44C280.896 44 280 43.1045 280 42ZM300 42C300 40.8955 300.896 40 302 40C303.104 40 304 40.8955 304 42C304 43.1045 303.104 44 302 44C300.896 44 300 43.1045 300 42ZM320 42C320 40.8955 320.896 40 322 40C323.104 40 324 40.8955 324 42C324 43.1045 323.104 44 322 44C320.896 44 320 43.1045 320 42ZM340 42C340 40.8955 340.896 40 342 40C343.104 40 344 40.8955 344 42C344 43.1045 343.104 44 342 44C340.896 44 340 43.1045 340 42ZM360 42C360 40.8955 360.896 40 362 40C363.104 40 364 40.8955 364 42C364 43.1045 363.104 44 362 44C360.896 44 360 43.1045 360 42ZM0 62C0 60.8955 0.895508 60 2 60C3.10449 60 4 60.8955 4 62C4 63.1045 3.10449 64 2 64C0.895508 64 0 63.1045 0 62ZM20 62C20 60.8955 20.8955 60 22 60C23.1045 60 24 60.8955 24 62C24 63.1045 23.1045 64 22 64C20.8955 64 20 63.1045 20 62ZM40 62C40 60.8955 40.8955 60 42 60C43.1045 60 44 60.8955 44 62C44 63.1045 43.1045 64 42 64C40.8955 64 40 63.1045 40 62ZM60 62C60 60.8955 60.8955 60 62 60C63.1045 60 64 60.8955 64 62C64 63.1045 63.1045 64 62 64C60.8955 64 60 63.1045 60 62ZM80 62C80 60.8955 80.8955 60 82 60C83.1045 60 84 60.8955 84 62C84 63.1045 83.1045 64 82 64C80.8955 64 80 63.1045 80 62ZM100 62C100 60.8955 100.896 60 102 60C103.104 60 104 60.8955 104 62C104 63.1045 103.104 64 102 64C100.896 64 100 63.1045 100 62ZM120 62C120 60.8955 120.896 60 122 60C123.104 60 124 60.8955 124 62C124 63.1045 123.104 64 122 64C120.896 64 120 63.1045 120 62ZM140 62C140 60.8955 140.896 60 142 60C143.104 60 144 60.8955 144 62C144 63.1045 143.104 64 142 64C140.896 64 140 63.1045 140 62ZM160 62C160 60.8955 160.896 60 162 60C163.104 60 164 60.8955 164 62C164 63.1045 163.104 64 162 64C160.896 64 160 63.1045 160 62ZM180 62C180 60.8955 180.896 60 182 60C183.104 60 184 60.8955 184 62C184 63.1045 183.104 64 182 64C180.896 64 180 63.1045 180 62ZM200 62C200 60.8955 200.896 60 202 60C203.104 60 204 60.8955 204 62C204 63.1045 203.104 64 202 64C200.896 64 200 63.1045 200 62ZM220 62C220 60.8955 220.896 60 222 60C223.104 60 224 60.8955 224 62C224 63.1045 223.104 64 222 64C220.896 64 220 63.1045 220 62ZM240 62C240 60.8955 240.896 60 242 60C243.104 60 244 60.8955 244 62C244 63.1045 243.104 64 242 64C240.896 64 240 63.1045 240 62ZM260 62C260 60.8955 260.896 60 262 60C263.104 60 264 60.8955 264 62C264 63.1045 263.104 64 262 64C260.896 64 260 63.1045 260 62ZM280 62C280 60.8955 280.896 60 282 60C283.104 60 284 60.8955 284 62C284 63.1045 283.104 64 282 64C280.896 64 280 63.1045 280 62ZM300 62C300 60.8955 300.896 60 302 60C303.104 60 304 60.8955 304 62C304 63.1045 303.104 64 302 64C300.896 64 300 63.1045 300 62ZM320 62C320 60.8955 320.896 60 322 60C323.104 60 324 60.8955 324 62C324 63.1045 323.104 64 322 64C320.896 64 320 63.1045 320 62ZM340 62C340 60.8955 340.896 60 342 60C343.104 60 344 60.8955 344 62C344 63.1045 343.104 64 342 64C340.896 64 340 63.1045 340 62ZM360 62C360 60.8955 360.896 60 362 60C363.104 60 364 60.8955 364 62C364 63.1045 363.104 64 362 64C360.896 64 360 63.1045 360 62ZM0 82C0 80.8955 0.895508 80 2 80C3.10449 80 4 80.8955 4 82C4 83.1045 3.10449 84 2 84C0.895508 84 0 83.1045 0 82ZM20 82C20 80.8955 20.8955 80 22 80C23.1045 80 24 80.8955 24 82C24 83.1045 23.1045 84 22 84C20.8955 84 20 83.1045 20 82ZM40 82C40 80.8955 40.8955 80 42 80C43.1045 80 44 80.8955 44 82C44 83.1045 43.1045 84 42 84C40.8955 84 40 83.1045 40 82ZM60 82C60 80.8955 60.8955 80 62 80C63.1045 80 64 80.8955 64 82C64 83.1045 63.1045 84 62 84C60.8955 84 60 83.1045 60 82ZM80 82C80 80.8955 80.8955 80 82 80C83.1045 80 84 80.8955 84 82C84 83.1045 83.1045 84 82 84C80.8955 84 80 83.1045 80 82ZM100 82C100 80.8955 100.896 80 102 80C103.104 80 104 80.8955 104 82C104 83.1045 103.104 84 102 84C100.896 84 100 83.1045 100 82ZM120 82C120 80.8955 120.896 80 122 80C123.104 80 124 80.8955 124 82C124 83.1045 123.104 84 122 84C120.896 84 120 83.1045 120 82ZM140 82C140 80.8955 140.896 80 142 80C143.104 80 144 80.8955 144 82C144 83.1045 143.104 84 142 84C140.896 84 140 83.1045 140 82ZM160 82C160 80.8955 160.896 80 162 80C163.104 80 164 80.8955 164 82C164 83.1045 163.104 84 162 84C160.896 84 160 83.1045 160 82ZM180 82C180 80.8955 180.896 80 182 80C183.104 80 184 80.8955 184 82C184 83.1045 183.104 84 182 84C180.896 84 180 83.1045 180 82ZM200 82C200 80.8955 200.896 80 202 80C203.104 80 204 80.8955 204 82C204 83.1045 203.104 84 202 84C200.896 84 200 83.1045 200 82ZM220 82C220 80.8955 220.896 80 222 80C223.104 80 224 80.8955 224 82C224 83.1045 223.104 84 222 84C220.896 84 220 83.1045 220 82ZM240 82C240 80.8955 240.896 80 242 80C243.104 80 244 80.8955 244 82C244 83.1045 243.104 84 242 84C240.896 84 240 83.1045 240 82ZM260 82C260 80.8955 260.896 80 262 80C263.104 80 264 80.8955 264 82C264 83.1045 263.104 84 262 84C260.896 84 260 83.1045 260 82ZM280 82C280 80.8955 280.896 80 282 80C283.104 80 284 80.8955 284 82C284 83.1045 283.104 84 282 84C280.896 84 280 83.1045 280 82ZM300 82C300 80.8955 300.896 80 302 80C303.104 80 304 80.8955 304 82C304 83.1045 303.104 84 302 84C300.896 84 300 83.1045 300 82ZM320 82C320 80.8955 320.896 80 322 80C323.104 80 324 80.8955 324 82C324 83.1045 323.104 84 322 84C320.896 84 320 83.1045 320 82ZM340 82C340 80.8955 340.896 80 342 80C343.104 80 344 80.8955 344 82C344 83.1045 343.104 84 342 84C340.896 84 340 83.1045 340 82ZM360 82C360 80.8955 360.896 80 362 80C363.104 80 364 80.8955 364 82C364 83.1045 363.104 84 362 84C360.896 84 360 83.1045 360 82ZM0 102C0 100.896 0.895508 100 2 100C3.10449 100 4 100.896 4 102C4 103.104 3.10449 104 2 104C0.895508 104 0 103.104 0 102ZM20 102C20 100.896 20.8955 100 22 100C23.1045 100 24 100.896 24 102C24 103.104 23.1045 104 22 104C20.8955 104 20 103.104 20 102ZM40 102C40 100.896 40.8955 100 42 100C43.1045 100 44 100.896 44 102C44 103.104 43.1045 104 42 104C40.8955 104 40 103.104 40 102ZM60 102C60 100.896 60.8955 100 62 100C63.1045 100 64 100.896 64 102C64 103.104 63.1045 104 62 104C60.8955 104 60 103.104 60 102ZM80 102C80 100.896 80.8955 100 82 100C83.1045 100 84 100.896 84 102C84 103.104 83.1045 104 82 104C80.8955 104 80 103.104 80 102ZM100 102C100 100.896 100.896 100 102 100C103.104 100 104 100.896 104 102C104 103.104 103.104 104 102 104C100.896 104 100 103.104 100 102ZM120 102C120 100.896 120.896 100 122 100C123.104 100 124 100.896 124 102C124 103.104 123.104 104 122 104C120.896 104 120 103.104 120 102ZM140 102C140 100.896 140.896 100 142 100C143.104 100 144 100.896 144 102C144 103.104 143.104 104 142 104C140.896 104 140 103.104 140 102ZM160 102C160 100.896 160.896 100 162 100C163.104 100 164 100.896 164 102C164 103.104 163.104 104 162 104C160.896 104 160 103.104 160 102ZM180 102C180 100.896 180.896 100 182 100C183.104 100 184 100.896 184 102C184 103.104 183.104 104 182 104C180.896 104 180 103.104 180 102ZM200 102C200 100.896 200.896 100 202 100C203.104 100 204 100.896 204 102C204 103.104 203.104 104 202 104C200.896 104 200 103.104 200 102ZM220 102C220 100.896 220.896 100 222 100C223.104 100 224 100.896 224 102C224 103.104 223.104 104 222 104C220.896 104 220 103.104 220 102ZM240 102C240 100.896 240.896 100 242 100C243.104 100 244 100.896 244 102C244 103.104 243.104 104 242 104C240.896 104 240 103.104 240 102ZM260 102C260 100.896 260.896 100 262 100C263.104 100 264 100.896 264 102C264 103.104 263.104 104 262 104C260.896 104 260 103.104 260 102ZM280 102C280 100.896 280.896 100 282 100C283.104 100 284 100.896 284 102C284 103.104 283.104 104 282 104C280.896 104 280 103.104 280 102ZM300 102C300 100.896 300.896 100 302 100C303.104 100 304 100.896 304 102C304 103.104 303.104 104 302 104C300.896 104 300 103.104 300 102ZM320 102C320 100.896 320.896 100 322 100C323.104 100 324 100.896 324 102C324 103.104 323.104 104 322 104C320.896 104 320 103.104 320 102ZM340 102C340 100.896 340.896 100 342 100C343.104 100 344 100.896 344 102C344 103.104 343.104 104 342 104C340.896 104 340 103.104 340 102ZM360 102C360 100.896 360.896 100 362 100C363.104 100 364 100.896 364 102C364 103.104 363.104 104 362 104C360.896 104 360 103.104 360 102ZM0 122C0 120.896 0.895508 120 2 120C3.10449 120 4 120.896 4 122C4 123.104 3.10449 124 2 124C0.895508 124 0 123.104 0 122ZM20 122C20 120.896 20.8955 120 22 120C23.1045 120 24 120.896 24 122C24 123.104 23.1045 124 22 124C20.8955 124 20 123.104 20 122ZM40 122C40 120.896 40.8955 120 42 120C43.1045 120 44 120.896 44 122C44 123.104 43.1045 124 42 124C40.8955 124 40 123.104 40 122ZM60 122C60 120.896 60.8955 120 62 120C63.1045 120 64 120.896 64 122C64 123.104 63.1045 124 62 124C60.8955 124 60 123.104 60 122ZM80 122C80 120.896 80.8955 120 82 120C83.1045 120 84 120.896 84 122C84 123.104 83.1045 124 82 124C80.8955 124 80 123.104 80 122ZM100 122C100 120.896 100.896 120 102 120C103.104 120 104 120.896 104 122C104 123.104 103.104 124 102 124C100.896 124 100 123.104 100 122ZM120 122C120 120.896 120.896 120 122 120C123.104 120 124 120.896 124 122C124 123.104 123.104 124 122 124C120.896 124 120 123.104 120 122ZM140 122C140 120.896 140.896 120 142 120C143.104 120 144 120.896 144 122C144 123.104 143.104 124 142 124C140.896 124 140 123.104 140 122ZM160 122C160 120.896 160.896 120 162 120C163.104 120 164 120.896 164 122C164 123.104 163.104 124 162 124C160.896 124 160 123.104 160 122ZM180 122C180 120.896 180.896 120 182 120C183.104 120 184 120.896 184 122C184 123.104 183.104 124 182 124C180.896 124 180 123.104 180 122ZM200 122C200 120.896 200.896 120 202 120C203.104 120 204 120.896 204 122C204 123.104 203.104 124 202 124C200.896 124 200 123.104 200 122ZM220 122C220 120.896 220.896 120 222 120C223.104 120 224 120.896 224 122C224 123.104 223.104 124 222 124C220.896 124 220 123.104 220 122ZM240 122C240 120.896 240.896 120 242 120C243.104 120 244 120.896 244 122C244 123.104 243.104 124 242 124C240.896 124 240 123.104 240 122ZM260 122C260 120.896 260.896 120 262 120C263.104 120 264 120.896 264 122C264 123.104 263.104 124 262 124C260.896 124 260 123.104 260 122ZM280 122C280 120.896 280.896 120 282 120C283.104 120 284 120.896 284 122C284 123.104 283.104 124 282 124C280.896 124 280 123.104 280 122ZM300 122C300 120.896 300.896 120 302 120C303.104 120 304 120.896 304 122C304 123.104 303.104 124 302 124C300.896 124 300 123.104 300 122ZM320 122C320 120.896 320.896 120 322 120C323.104 120 324 120.896 324 122C324 123.104 323.104 124 322 124C320.896 124 320 123.104 320 122ZM340 122C340 120.896 340.896 120 342 120C343.104 120 344 120.896 344 122C344 123.104 343.104 124 342 124C340.896 124 340 123.104 340 122ZM360 122C360 120.896 360.896 120 362 120C363.104 120 364 120.896 364 122C364 123.104 363.104 124 362 124C360.896 124 360 123.104 360 122ZM0 142C0 140.896 0.895508 140 2 140C3.10449 140 4 140.896 4 142C4 143.104 3.10449 144 2 144C0.895508 144 0 143.104 0 142ZM20 142C20 140.896 20.8955 140 22 140C23.1045 140 24 140.896 24 142C24 143.104 23.1045 144 22 144C20.8955 144 20 143.104 20 142ZM40 142C40 140.896 40.8955 140 42 140C43.1045 140 44 140.896 44 142C44 143.104 43.1045 144 42 144C40.8955 144 40 143.104 40 142ZM60 142C60 140.896 60.8955 140 62 140C63.1045 140 64 140.896 64 142C64 143.104 63.1045 144 62 144C60.8955 144 60 143.104 60 142ZM80 142C80 140.896 80.8955 140 82 140C83.1045 140 84 140.896 84 142C84 143.104 83.1045 144 82 144C80.8955 144 80 143.104 80 142ZM100 142C100 140.896 100.896 140 102 140C103.104 140 104 140.896 104 142C104 143.104 103.104 144 102 144C100.896 144 100 143.104 100 142ZM120 142C120 140.896 120.896 140 122 140C123.104 140 124 140.896 124 142C124 143.104 123.104 144 122 144C120.896 144 120 143.104 120 142ZM140 142C140 140.896 140.896 140 142 140C143.104 140 144 140.896 144 142C144 143.104 143.104 144 142 144C140.896 144 140 143.104 140 142ZM160 142C160 140.896 160.896 140 162 140C163.104 140 164 140.896 164 142C164 143.104 163.104 144 162 144C160.896 144 160 143.104 160 142ZM180 142C180 140.896 180.896 140 182 140C183.104 140 184 140.896 184 142C184 143.104 183.104 144 182 144C180.896 144 180 143.104 180 142ZM200 142C200 140.896 200.896 140 202 140C203.104 140 204 140.896 204 142C204 143.104 203.104 144 202 144C200.896 144 200 143.104 200 142ZM220 142C220 140.896 220.896 140 222 140C223.104 140 224 140.896 224 142C224 143.104 223.104 144 222 144C220.896 144 220 143.104 220 142ZM240 142C240 140.896 240.896 140 242 140C243.104 140 244 140.896 244 142C244 143.104 243.104 144 242 144C240.896 144 240 143.104 240 142ZM260 142C260 140.896 260.896 140 262 140C263.104 140 264 140.896 264 142C264 143.104 263.104 144 262 144C260.896 144 260 143.104 260 142ZM280 142C280 140.896 280.896 140 282 140C283.104 140 284 140.896 284 142C284 143.104 283.104 144 282 144C280.896 144 280 143.104 280 142ZM300 142C300 140.896 300.896 140 302 140C303.104 140 304 140.896 304 142C304 143.104 303.104 144 302 144C300.896 144 300 143.104 300 142ZM320 142C320 140.896 320.896 140 322 140C323.104 140 324 140.896 324 142C324 143.104 323.104 144 322 144C320.896 144 320 143.104 320 142ZM340 142C340 140.896 340.896 140 342 140C343.104 140 344 140.896 344 142C344 143.104 343.104 144 342 144C340.896 144 340 143.104 340 142ZM360 142C360 140.896 360.896 140 362 140C363.104 140 364 140.896 364 142C364 143.104 363.104 144 362 144C360.896 144 360 143.104 360 142ZM0 162C0 160.896 0.895508 160 2 160C3.10449 160 4 160.896 4 162C4 163.104 3.10449 164 2 164C0.895508 164 0 163.104 0 162ZM20 162C20 160.896 20.8955 160 22 160C23.1045 160 24 160.896 24 162C24 163.104 23.1045 164 22 164C20.8955 164 20 163.104 20 162ZM40 162C40 160.896 40.8955 160 42 160C43.1045 160 44 160.896 44 162C44 163.104 43.1045 164 42 164C40.8955 164 40 163.104 40 162ZM60 162C60 160.896 60.8955 160 62 160C63.1045 160 64 160.896 64 162C64 163.104 63.1045 164 62 164C60.8955 164 60 163.104 60 162ZM80 162C80 160.896 80.8955 160 82 160C83.1045 160 84 160.896 84 162C84 163.104 83.1045 164 82 164C80.8955 164 80 163.104 80 162ZM100 162C100 160.896 100.896 160 102 160C103.104 160 104 160.896 104 162C104 163.104 103.104 164 102 164C100.896 164 100 163.104 100 162ZM120 162C120 160.896 120.896 160 122 160C123.104 160 124 160.896 124 162C124 163.104 123.104 164 122 164C120.896 164 120 163.104 120 162ZM140 162C140 160.896 140.896 160 142 160C143.104 160 144 160.896 144 162C144 163.104 143.104 164 142 164C140.896 164 140 163.104 140 162ZM160 162C160 160.896 160.896 160 162 160C163.104 160 164 160.896 164 162C164 163.104 163.104 164 162 164C160.896 164 160 163.104 160 162ZM180 162C180 160.896 180.896 160 182 160C183.104 160 184 160.896 184 162C184 163.104 183.104 164 182 164C180.896 164 180 163.104 180 162ZM200 162C200 160.896 200.896 160 202 160C203.104 160 204 160.896 204 162C204 163.104 203.104 164 202 164C200.896 164 200 163.104 200 162ZM220 162C220 160.896 220.896 160 222 160C223.104 160 224 160.896 224 162C224 163.104 223.104 164 222 164C220.896 164 220 163.104 220 162ZM240 162C240 160.896 240.896 160 242 160C243.104 160 244 160.896 244 162C244 163.104 243.104 164 242 164C240.896 164 240 163.104 240 162ZM260 162C260 160.896 260.896 160 262 160C263.104 160 264 160.896 264 162C264 163.104 263.104 164 262 164C260.896 164 260 163.104 260 162ZM280 162C280 160.896 280.896 160 282 160C283.104 160 284 160.896 284 162C284 163.104 283.104 164 282 164C280.896 164 280 163.104 280 162ZM300 162C300 160.896 300.896 160 302 160C303.104 160 304 160.896 304 162C304 163.104 303.104 164 302 164C300.896 164 300 163.104 300 162ZM320 162C320 160.896 320.896 160 322 160C323.104 160 324 160.896 324 162C324 163.104 323.104 164 322 164C320.896 164 320 163.104 320 162ZM340 162C340 160.896 340.896 160 342 160C343.104 160 344 160.896 344 162C344 163.104 343.104 164 342 164C340.896 164 340 163.104 340 162ZM360 162C360 160.896 360.896 160 362 160C363.104 160 364 160.896 364 162C364 163.104 363.104 164 362 164C360.896 164 360 163.104 360 162ZM2 184C0.895508 184 0 183.104 0 182C0 180.896 0.895508 180 2 180C3.10449 180 4 180.896 4 182C4 183.104 3.10449 184 2 184ZM22 184C20.8955 184 20 183.104 20 182C20 180.896 20.8955 180 22 180C23.1045 180 24 180.896 24 182C24 183.104 23.1045 184 22 184ZM42 184C40.8955 184 40 183.104 40 182C40 180.896 40.8955 180 42 180C43.1045 180 44 180.896 44 182C44 183.104 43.1045 184 42 184ZM62 184C60.8955 184 60 183.104 60 182C60 180.896 60.8955 180 62 180C63.1045 180 64 180.896 64 182C64 183.104 63.1045 184 62 184ZM82 184C80.8955 184 80 183.104 80 182C80 180.896 80.8955 180 82 180C83.1045 180 84 180.896 84 182C84 183.104 83.1045 184 82 184ZM102 184C100.896 184 100 183.104 100 182C100 180.896 100.896 180 102 180C103.104 180 104 180.896 104 182C104 183.104 103.104 184 102 184ZM122 180C120.896 180 120 180.896 120 182C120 183.104 120.896 184 122 184C123.104 184 124 183.104 124 182C124 180.896 123.104 180 122 180ZM142 184C140.896 184 140 183.104 140 182C140 180.896 140.896 180 142 180C143.104 180 144 180.896 144 182C144 183.104 143.104 184 142 184ZM162 184C160.896 184 160 183.104 160 182C160 180.896 160.896 180 162 180C163.104 180 164 180.896 164 182C164 183.104 163.104 184 162 184ZM182 184C180.896 184 180 183.104 180 182C180 180.896 180.896 180 182 180C183.104 180 184 180.896 184 182C184 183.104 183.104 184 182 184ZM202 184C200.896 184 200 183.104 200 182C200 180.896 200.896 180 202 180C203.104 180 204 180.896 204 182C204 183.104 203.104 184 202 184ZM222 184C220.896 184 220 183.104 220 182C220 180.896 220.896 180 222 180C223.104 180 224 180.896 224 182C224 183.104 223.104 184 222 184ZM242 184C240.896 184 240 183.104 240 182C240 180.896 240.896 180 242 180C243.104 180 244 180.896 244 182C244 183.104 243.104 184 242 184ZM262 184C260.896 184 260 183.104 260 182C260 180.896 260.896 180 262 180C263.104 180 264 180.896 264 182C264 183.104 263.104 184 262 184ZM282 184C280.896 184 280 183.104 280 182C280 180.896 280.896 180 282 180C283.104 180 284 180.896 284 182C284 183.104 283.104 184 282 184ZM302 184C300.896 184 300 183.104 300 182C300 180.896 300.896 180 302 180C303.104 180 304 180.896 304 182C304 183.104 303.104 184 302 184ZM322 184C320.896 184 320 183.104 320 182C320 180.896 320.896 180 322 180C323.104 180 324 180.896 324 182C324 183.104 323.104 184 322 184ZM342 184C340.896 184 340 183.104 340 182C340 180.896 340.896 180 342 180C343.104 180 344 180.896 344 182C344 183.104 343.104 184 342 184ZM362 184C360.896 184 360 183.104 360 182C360 180.896 360.896 180 362 180C363.104 180 364 180.896 364 182C364 183.104 363.104 184 362 184ZM2 200C0.895508 200 0 200.896 0 202C0 203.104 0.895508 204 2 204C3.10449 204 4 203.104 4 202C4 200.896 3.10449 200 2 200ZM22 200C20.8955 200 20 200.896 20 202C20 203.104 20.8955 204 22 204C23.1045 204 24 203.104 24 202C24 200.896 23.1045 200 22 200ZM42 200C40.8955 200 40 200.896 40 202C40 203.104 40.8955 204 42 204C43.1045 204 44 203.104 44 202C44 200.896 43.1045 200 42 200ZM62 200C60.8955 200 60 200.896 60 202C60 203.104 60.8955 204 62 204C63.1045 204 64 203.104 64 202C64 200.896 63.1045 200 62 200ZM82 200C80.8955 200 80 200.896 80 202C80 203.104 80.8955 204 82 204C83.1045 204 84 203.104 84 202C84 200.896 83.1045 200 82 200ZM102 200C100.896 200 100 200.896 100 202C100 203.104 100.896 204 102 204C103.104 204 104 203.104 104 202C104 200.896 103.104 200 102 200ZM122 200C120.896 200 120 200.896 120 202C120 203.104 120.896 204 122 204C123.104 204 124 203.104 124 202C124 200.896 123.104 200 122 200ZM142 200C140.896 200 140 200.896 140 202C140 203.104 140.896 204 142 204C143.104 204 144 203.104 144 202C144 200.896 143.104 200 142 200ZM162 200C160.896 200 160 200.896 160 202C160 203.104 160.896 204 162 204C163.104 204 164 203.104 164 202C164 200.896 163.104 200 162 200ZM182 200C180.896 200 180 200.896 180 202C180 203.104 180.896 204 182 204C183.104 204 184 203.104 184 202C184 200.896 183.104 200 182 200ZM202 200C200.896 200 200 200.896 200 202C200 203.104 200.896 204 202 204C203.104 204 204 203.104 204 202C204 200.896 203.104 200 202 200ZM222 200C220.896 200 220 200.896 220 202C220 203.104 220.896 204 222 204C223.104 204 224 203.104 224 202C224 200.896 223.104 200 222 200ZM242 200C240.896 200 240 200.896 240 202C240 203.104 240.896 204 242 204C243.104 204 244 203.104 244 202C244 200.896 243.104 200 242 200ZM262 200C260.896 200 260 200.896 260 202C260 203.104 260.896 204 262 204C263.104 204 264 203.104 264 202C264 200.896 263.104 200 262 200ZM282 200C280.896 200 280 200.896 280 202C280 203.104 280.896 204 282 204C283.104 204 284 203.104 284 202C284 200.896 283.104 200 282 200ZM302 200C300.896 200 300 200.896 300 202C300 203.104 300.896 204 302 204C303.104 204 304 203.104 304 202C304 200.896 303.104 200 302 200ZM322 200C320.896 200 320 200.896 320 202C320 203.104 320.896 204 322 204C323.104 204 324 203.104 324 202C324 200.896 323.104 200 322 200ZM342 200C340.896 200 340 200.896 340 202C340 203.104 340.896 204 342 204C343.104 204 344 203.104 344 202C344 200.896 343.104 200 342 200ZM362 200C360.896 200 360 200.896 360 202C360 203.104 360.896 204 362 204C363.104 204 364 203.104 364 202C364 200.896 363.104 200 362 200ZM2 220C0.895508 220 0 220.896 0 222C0 223.104 0.895508 224 2 224C3.10449 224 4 223.104 4 222C4 220.896 3.10449 220 2 220ZM22 220C20.8955 220 20 220.896 20 222C20 223.104 20.8955 224 22 224C23.1045 224 24 223.104 24 222C24 220.896 23.1045 220 22 220ZM42 220C40.8955 220 40 220.896 40 222C40 223.104 40.8955 224 42 224C43.1045 224 44 223.104 44 222C44 220.896 43.1045 220 42 220ZM62 220C60.8955 220 60 220.896 60 222C60 223.104 60.8955 224 62 224C63.1045 224 64 223.104 64 222C64 220.896 63.1045 220 62 220ZM82 220C80.8955 220 80 220.896 80 222C80 223.104 80.8955 224 82 224C83.1045 224 84 223.104 84 222C84 220.896 83.1045 220 82 220ZM102 220C100.896 220 100 220.896 100 222C100 223.104 100.896 224 102 224C103.104 224 104 223.104 104 222C104 220.896 103.104 220 102 220ZM122 220C120.896 220 120 220.896 120 222C120 223.104 120.896 224 122 224C123.104 224 124 223.104 124 222C124 220.896 123.104 220 122 220ZM142 220C140.896 220 140 220.896 140 222C140 223.104 140.896 224 142 224C143.104 224 144 223.104 144 222C144 220.896 143.104 220 142 220ZM162 220C160.896 220 160 220.896 160 222C160 223.104 160.896 224 162 224C163.104 224 164 223.104 164 222C164 220.896 163.104 220 162 220ZM182 220C180.896 220 180 220.896 180 222C180 223.104 180.896 224 182 224C183.104 224 184 223.104 184 222C184 220.896 183.104 220 182 220ZM202 220C200.896 220 200 220.896 200 222C200 223.104 200.896 224 202 224C203.104 224 204 223.104 204 222C204 220.896 203.104 220 202 220ZM222 220C220.896 220 220 220.896 220 222C220 223.104 220.896 224 222 224C223.104 224 224 223.104 224 222C224 220.896 223.104 220 222 220ZM242 220C240.896 220 240 220.896 240 222C240 223.104 240.896 224 242 224C243.104 224 244 223.104 244 222C244 220.896 243.104 220 242 220ZM262 220C260.896 220 260 220.896 260 222C260 223.104 260.896 224 262 224C263.104 224 264 223.104 264 222C264 220.896 263.104 220 262 220ZM282 220C280.896 220 280 220.896 280 222C280 223.104 280.896 224 282 224C283.104 224 284 223.104 284 222C284 220.896 283.104 220 282 220ZM302 220C300.896 220 300 220.896 300 222C300 223.104 300.896 224 302 224C303.104 224 304 223.104 304 222C304 220.896 303.104 220 302 220ZM322 220C320.896 220 320 220.896 320 222C320 223.104 320.896 224 322 224C323.104 224 324 223.104 324 222C324 220.896 323.104 220 322 220ZM342 220C340.896 220 340 220.896 340 222C340 223.104 340.896 224 342 224C343.104 224 344 223.104 344 222C344 220.896 343.104 220 342 220ZM362 220C360.896 220 360 220.896 360 222C360 223.104 360.896 224 362 224C363.104 224 364 223.104 364 222C364 220.896 363.104 220 362 220ZM2 240C0.895508 240 0 240.896 0 242C0 243.104 0.895508 244 2 244C3.10449 244 4 243.104 4 242C4 240.896 3.10449 240 2 240ZM22 240C20.8955 240 20 240.896 20 242C20 243.104 20.8955 244 22 244C23.1045 244 24 243.104 24 242C24 240.896 23.1045 240 22 240ZM42 240C40.8955 240 40 240.896 40 242C40 243.104 40.8955 244 42 244C43.1045 244 44 243.104 44 242C44 240.896 43.1045 240 42 240ZM62 240C60.8955 240 60 240.896 60 242C60 243.104 60.8955 244 62 244C63.1045 244 64 243.104 64 242C64 240.896 63.1045 240 62 240ZM82 240C80.8955 240 80 240.896 80 242C80 243.104 80.8955 244 82 244C83.1045 244 84 243.104 84 242C84 240.896 83.1045 240 82 240ZM102 240C100.896 240 100 240.896 100 242C100 243.104 100.896 244 102 244C103.104 244 104 243.104 104 242C104 240.896 103.104 240 102 240ZM122 240C120.896 240 120 240.896 120 242C120 243.104 120.896 244 122 244C123.104 244 124 243.104 124 242C124 240.896 123.104 240 122 240ZM142 240C140.896 240 140 240.896 140 242C140 243.104 140.896 244 142 244C143.104 244 144 243.104 144 242C144 240.896 143.104 240 142 240ZM162 240C160.896 240 160 240.896 160 242C160 243.104 160.896 244 162 244C163.104 244 164 243.104 164 242C164 240.896 163.104 240 162 240ZM182 240C180.896 240 180 240.896 180 242C180 243.104 180.896 244 182 244C183.104 244 184 243.104 184 242C184 240.896 183.104 240 182 240ZM202 240C200.896 240 200 240.896 200 242C200 243.104 200.896 244 202 244C203.104 244 204 243.104 204 242C204 240.896 203.104 240 202 240ZM222 240C220.896 240 220 240.896 220 242C220 243.104 220.896 244 222 244C223.104 244 224 243.104 224 242C224 240.896 223.104 240 222 240ZM242 240C240.896 240 240 240.896 240 242C240 243.104 240.896 244 242 244C243.104 244 244 243.104 244 242C244 240.896 243.104 240 242 240ZM262 240C260.896 240 260 240.896 260 242C260 243.104 260.896 244 262 244C263.104 244 264 243.104 264 242C264 240.896 263.104 240 262 240ZM282 240C280.896 240 280 240.896 280 242C280 243.104 280.896 244 282 244C283.104 244 284 243.104 284 242C284 240.896 283.104 240 282 240ZM302 240C300.896 240 300 240.896 300 242C300 243.104 300.896 244 302 244C303.104 244 304 243.104 304 242C304 240.896 303.104 240 302 240ZM322 240C320.896 240 320 240.896 320 242C320 243.104 320.896 244 322 244C323.104 244 324 243.104 324 242C324 240.896 323.104 240 322 240ZM342 240C340.896 240 340 240.896 340 242C340 243.104 340.896 244 342 244C343.104 244 344 243.104 344 242C344 240.896 343.104 240 342 240ZM362 240C360.896 240 360 240.896 360 242C360 243.104 360.896 244 362 244C363.104 244 364 243.104 364 242C364 240.896 363.104 240 362 240ZM2 260C0.895508 260 0 260.896 0 262C0 263.104 0.895508 264 2 264C3.10449 264 4 263.104 4 262C4 260.896 3.10449 260 2 260ZM22 260C20.8955 260 20 260.896 20 262C20 263.104 20.8955 264 22 264C23.1045 264 24 263.104 24 262C24 260.896 23.1045 260 22 260ZM42 260C40.8955 260 40 260.896 40 262C40 263.104 40.8955 264 42 264C43.1045 264 44 263.104 44 262C44 260.896 43.1045 260 42 260ZM62 260C60.8955 260 60 260.896 60 262C60 263.104 60.8955 264 62 264C63.1045 264 64 263.104 64 262C64 260.896 63.1045 260 62 260ZM82 260C80.8955 260 80 260.896 80 262C80 263.104 80.8955 264 82 264C83.1045 264 84 263.104 84 262C84 260.896 83.1045 260 82 260ZM102 260C100.896 260 100 260.896 100 262C100 263.104 100.896 264 102 264C103.104 264 104 263.104 104 262C104 260.896 103.104 260 102 260ZM122 260C120.896 260 120 260.896 120 262C120 263.104 120.896 264 122 264C123.104 264 124 263.104 124 262C124 260.896 123.104 260 122 260ZM142 260C140.896 260 140 260.896 140 262C140 263.104 140.896 264 142 264C143.104 264 144 263.104 144 262C144 260.896 143.104 260 142 260ZM162 260C160.896 260 160 260.896 160 262C160 263.104 160.896 264 162 264C163.104 264 164 263.104 164 262C164 260.896 163.104 260 162 260ZM182 260C180.896 260 180 260.896 180 262C180 263.104 180.896 264 182 264C183.104 264 184 263.104 184 262C184 260.896 183.104 260 182 260ZM202 260C200.896 260 200 260.896 200 262C200 263.104 200.896 264 202 264C203.104 264 204 263.104 204 262C204 260.896 203.104 260 202 260ZM222 260C220.896 260 220 260.896 220 262C220 263.104 220.896 264 222 264C223.104 264 224 263.104 224 262C224 260.896 223.104 260 222 260ZM242 260C240.896 260 240 260.896 240 262C240 263.104 240.896 264 242 264C243.104 264 244 263.104 244 262C244 260.896 243.104 260 242 260ZM262 260C260.896 260 260 260.896 260 262C260 263.104 260.896 264 262 264C263.104 264 264 263.104 264 262C264 260.896 263.104 260 262 260ZM282 260C280.896 260 280 260.896 280 262C280 263.104 280.896 264 282 264C283.104 264 284 263.104 284 262C284 260.896 283.104 260 282 260ZM302 260C300.896 260 300 260.896 300 262C300 263.104 300.896 264 302 264C303.104 264 304 263.104 304 262C304 260.896 303.104 260 302 260ZM322 260C320.896 260 320 260.896 320 262C320 263.104 320.896 264 322 264C323.104 264 324 263.104 324 262C324 260.896 323.104 260 322 260ZM342 260C340.896 260 340 260.896 340 262C340 263.104 340.896 264 342 264C343.104 264 344 263.104 344 262C344 260.896 343.104 260 342 260ZM362 260C360.896 260 360 260.896 360 262C360 263.104 360.896 264 362 264C363.104 264 364 263.104 364 262C364 260.896 363.104 260 362 260ZM2 280C0.895508 280 0 280.896 0 282C0 283.104 0.895508 284 2 284C3.10449 284 4 283.104 4 282C4 280.896 3.10449 280 2 280ZM22 280C20.8955 280 20 280.896 20 282C20 283.104 20.8955 284 22 284C23.1045 284 24 283.104 24 282C24 280.896 23.1045 280 22 280ZM42 280C40.8955 280 40 280.896 40 282C40 283.104 40.8955 284 42 284C43.1045 284 44 283.104 44 282C44 280.896 43.1045 280 42 280ZM62 280C60.8955 280 60 280.896 60 282C60 283.104 60.8955 284 62 284C63.1045 284 64 283.104 64 282C64 280.896 63.1045 280 62 280ZM82 280C80.8955 280 80 280.896 80 282C80 283.104 80.8955 284 82 284C83.1045 284 84 283.104 84 282C84 280.896 83.1045 280 82 280ZM102 280C100.896 280 100 280.896 100 282C100 283.104 100.896 284 102 284C103.104 284 104 283.104 104 282C104 280.896 103.104 280 102 280ZM122 280C120.896 280 120 280.896 120 282C120 283.104 120.896 284 122 284C123.104 284 124 283.104 124 282C124 280.896 123.104 280 122 280ZM142 280C140.896 280 140 280.896 140 282C140 283.104 140.896 284 142 284C143.104 284 144 283.104 144 282C144 280.896 143.104 280 142 280ZM162 280C160.896 280 160 280.896 160 282C160 283.104 160.896 284 162 284C163.104 284 164 283.104 164 282C164 280.896 163.104 280 162 280ZM182 280C180.896 280 180 280.896 180 282C180 283.104 180.896 284 182 284C183.104 284 184 283.104 184 282C184 280.896 183.104 280 182 280ZM202 280C200.896 280 200 280.896 200 282C200 283.104 200.896 284 202 284C203.104 284 204 283.104 204 282C204 280.896 203.104 280 202 280ZM222 280C220.896 280 220 280.896 220 282C220 283.104 220.896 284 222 284C223.104 284 224 283.104 224 282C224 280.896 223.104 280 222 280ZM242 280C240.896 280 240 280.896 240 282C240 283.104 240.896 284 242 284C243.104 284 244 283.104 244 282C244 280.896 243.104 280 242 280ZM262 280C260.896 280 260 280.896 260 282C260 283.104 260.896 284 262 284C263.104 284 264 283.104 264 282C264 280.896 263.104 280 262 280ZM282 280C280.896 280 280 280.896 280 282C280 283.104 280.896 284 282 284C283.104 284 284 283.104 284 282C284 280.896 283.104 280 282 280ZM302 280C300.896 280 300 280.896 300 282C300 283.104 300.896 284 302 284C303.104 284 304 283.104 304 282C304 280.896 303.104 280 302 280ZM322 280C320.896 280 320 280.896 320 282C320 283.104 320.896 284 322 284C323.104 284 324 283.104 324 282C324 280.896 323.104 280 322 280ZM342 280C340.896 280 340 280.896 340 282C340 283.104 340.896 284 342 284C343.104 284 344 283.104 344 282C344 280.896 343.104 280 342 280ZM362 280C360.896 280 360 280.896 360 282C360 283.104 360.896 284 362 284C363.104 284 364 283.104 364 282C364 280.896 363.104 280 362 280ZM2 300C0.895508 300 0 300.896 0 302C0 303.104 0.895508 304 2 304C3.10449 304 4 303.104 4 302C4 300.896 3.10449 300 2 300ZM22 300C20.8955 300 20 300.896 20 302C20 303.104 20.8955 304 22 304C23.1045 304 24 303.104 24 302C24 300.896 23.1045 300 22 300ZM42 300C40.8955 300 40 300.896 40 302C40 303.104 40.8955 304 42 304C43.1045 304 44 303.104 44 302C44 300.896 43.1045 300 42 300ZM62 300C60.8955 300 60 300.896 60 302C60 303.104 60.8955 304 62 304C63.1045 304 64 303.104 64 302C64 300.896 63.1045 300 62 300ZM82 300C80.8955 300 80 300.896 80 302C80 303.104 80.8955 304 82 304C83.1045 304 84 303.104 84 302C84 300.896 83.1045 300 82 300ZM102 300C100.896 300 100 300.896 100 302C100 303.104 100.896 304 102 304C103.104 304 104 303.104 104 302C104 300.896 103.104 300 102 300ZM122 300C120.896 300 120 300.896 120 302C120 303.104 120.896 304 122 304C123.104 304 124 303.104 124 302C124 300.896 123.104 300 122 300ZM142 300C140.896 300 140 300.896 140 302C140 303.104 140.896 304 142 304C143.104 304 144 303.104 144 302C144 300.896 143.104 300 142 300ZM162 300C160.896 300 160 300.896 160 302C160 303.104 160.896 304 162 304C163.104 304 164 303.104 164 302C164 300.896 163.104 300 162 300ZM182 300C180.896 300 180 300.896 180 302C180 303.104 180.896 304 182 304C183.104 304 184 303.104 184 302C184 300.896 183.104 300 182 300ZM202 300C200.896 300 200 300.896 200 302C200 303.104 200.896 304 202 304C203.104 304 204 303.104 204 302C204 300.896 203.104 300 202 300ZM222 300C220.896 300 220 300.896 220 302C220 303.104 220.896 304 222 304C223.104 304 224 303.104 224 302C224 300.896 223.104 300 222 300ZM242 300C240.896 300 240 300.896 240 302C240 303.104 240.896 304 242 304C243.104 304 244 303.104 244 302C244 300.896 243.104 300 242 300ZM262 300C260.896 300 260 300.896 260 302C260 303.104 260.896 304 262 304C263.104 304 264 303.104 264 302C264 300.896 263.104 300 262 300ZM282 300C280.896 300 280 300.896 280 302C280 303.104 280.896 304 282 304C283.104 304 284 303.104 284 302C284 300.896 283.104 300 282 300ZM302 300C300.896 300 300 300.896 300 302C300 303.104 300.896 304 302 304C303.104 304 304 303.104 304 302C304 300.896 303.104 300 302 300ZM322 300C320.896 300 320 300.896 320 302C320 303.104 320.896 304 322 304C323.104 304 324 303.104 324 302C324 300.896 323.104 300 322 300ZM342 300C340.896 300 340 300.896 340 302C340 303.104 340.896 304 342 304C343.104 304 344 303.104 344 302C344 300.896 343.104 300 342 300ZM362 300C360.896 300 360 300.896 360 302C360 303.104 360.896 304 362 304C363.104 304 364 303.104 364 302C364 300.896 363.104 300 362 300ZM2 320C0.895508 320 0 320.896 0 322C0 323.104 0.895508 324 2 324C3.10449 324 4 323.104 4 322C4 320.896 3.10449 320 2 320ZM22 320C20.8955 320 20 320.896 20 322C20 323.104 20.8955 324 22 324C23.1045 324 24 323.104 24 322C24 320.896 23.1045 320 22 320ZM42 320C40.8955 320 40 320.896 40 322C40 323.104 40.8955 324 42 324C43.1045 324 44 323.104 44 322C44 320.896 43.1045 320 42 320ZM62 320C60.8955 320 60 320.896 60 322C60 323.104 60.8955 324 62 324C63.1045 324 64 323.104 64 322C64 320.896 63.1045 320 62 320ZM82 320C80.8955 320 80 320.896 80 322C80 323.104 80.8955 324 82 324C83.1045 324 84 323.104 84 322C84 320.896 83.1045 320 82 320ZM102 320C100.896 320 100 320.896 100 322C100 323.104 100.896 324 102 324C103.104 324 104 323.104 104 322C104 320.896 103.104 320 102 320ZM122 320C120.896 320 120 320.896 120 322C120 323.104 120.896 324 122 324C123.104 324 124 323.104 124 322C124 320.896 123.104 320 122 320ZM142 320C140.896 320 140 320.896 140 322C140 323.104 140.896 324 142 324C143.104 324 144 323.104 144 322C144 320.896 143.104 320 142 320ZM162 320C160.896 320 160 320.896 160 322C160 323.104 160.896 324 162 324C163.104 324 164 323.104 164 322C164 320.896 163.104 320 162 320ZM182 320C180.896 320 180 320.896 180 322C180 323.104 180.896 324 182 324C183.104 324 184 323.104 184 322C184 320.896 183.104 320 182 320ZM202 320C200.896 320 200 320.896 200 322C200 323.104 200.896 324 202 324C203.104 324 204 323.104 204 322C204 320.896 203.104 320 202 320ZM222 320C220.896 320 220 320.896 220 322C220 323.104 220.896 324 222 324C223.104 324 224 323.104 224 322C224 320.896 223.104 320 222 320ZM242 320C240.896 320 240 320.896 240 322C240 323.104 240.896 324 242 324C243.104 324 244 323.104 244 322C244 320.896 243.104 320 242 320ZM262 320C260.896 320 260 320.896 260 322C260 323.104 260.896 324 262 324C263.104 324 264 323.104 264 322C264 320.896 263.104 320 262 320ZM282 320C280.896 320 280 320.896 280 322C280 323.104 280.896 324 282 324C283.104 324 284 323.104 284 322C284 320.896 283.104 320 282 320ZM302 320C300.896 320 300 320.896 300 322C300 323.104 300.896 324 302 324C303.104 324 304 323.104 304 322C304 320.896 303.104 320 302 320ZM322 320C320.896 320 320 320.896 320 322C320 323.104 320.896 324 322 324C323.104 324 324 323.104 324 322C324 320.896 323.104 320 322 320ZM342 320C340.896 320 340 320.896 340 322C340 323.104 340.896 324 342 324C343.104 324 344 323.104 344 322C344 320.896 343.104 320 342 320ZM362 320C360.896 320 360 320.896 360 322C360 323.104 360.896 324 362 324C363.104 324 364 323.104 364 322C364 320.896 363.104 320 362 320ZM2 340C0.895508 340 0 340.896 0 342C0 343.104 0.895508 344 2 344C3.10449 344 4 343.104 4 342C4 340.896 3.10449 340 2 340ZM22 340C20.8955 340 20 340.896 20 342C20 343.104 20.8955 344 22 344C23.1045 344 24 343.104 24 342C24 340.896 23.1045 340 22 340ZM42 340C40.8955 340 40 340.896 40 342C40 343.104 40.8955 344 42 344C43.1045 344 44 343.104 44 342C44 340.896 43.1045 340 42 340ZM62 340C60.8955 340 60 340.896 60 342C60 343.104 60.8955 344 62 344C63.1045 344 64 343.104 64 342C64 340.896 63.1045 340 62 340ZM82 340C80.8955 340 80 340.896 80 342C80 343.104 80.8955 344 82 344C83.1045 344 84 343.104 84 342C84 340.896 83.1045 340 82 340ZM102 340C100.896 340 100 340.896 100 342C100 343.104 100.896 344 102 344C103.104 344 104 343.104 104 342C104 340.896 103.104 340 102 340ZM122 340C120.896 340 120 340.896 120 342C120 343.104 120.896 344 122 344C123.104 344 124 343.104 124 342C124 340.896 123.104 340 122 340ZM142 340C140.896 340 140 340.896 140 342C140 343.104 140.896 344 142 344C143.104 344 144 343.104 144 342C144 340.896 143.104 340 142 340ZM162 340C160.896 340 160 340.896 160 342C160 343.104 160.896 344 162 344C163.104 344 164 343.104 164 342C164 340.896 163.104 340 162 340ZM182 340C180.896 340 180 340.896 180 342C180 343.104 180.896 344 182 344C183.104 344 184 343.104 184 342C184 340.896 183.104 340 182 340ZM202 340C200.896 340 200 340.896 200 342C200 343.104 200.896 344 202 344C203.104 344 204 343.104 204 342C204 340.896 203.104 340 202 340ZM222 340C220.896 340 220 340.896 220 342C220 343.104 220.896 344 222 344C223.104 344 224 343.104 224 342C224 340.896 223.104 340 222 340ZM242 340C240.896 340 240 340.896 240 342C240 343.104 240.896 344 242 344C243.104 344 244 343.104 244 342C244 340.896 243.104 340 242 340ZM262 340C260.896 340 260 340.896 260 342C260 343.104 260.896 344 262 344C263.104 344 264 343.104 264 342C264 340.896 263.104 340 262 340ZM282 340C280.896 340 280 340.896 280 342C280 343.104 280.896 344 282 344C283.104 344 284 343.104 284 342C284 340.896 283.104 340 282 340ZM302 340C300.896 340 300 340.896 300 342C300 343.104 300.896 344 302 344C303.104 344 304 343.104 304 342C304 340.896 303.104 340 302 340ZM322 340C320.896 340 320 340.896 320 342C320 343.104 320.896 344 322 344C323.104 344 324 343.104 324 342C324 340.896 323.104 340 322 340ZM342 340C340.896 340 340 340.896 340 342C340 343.104 340.896 344 342 344C343.104 344 344 343.104 344 342C344 340.896 343.104 340 342 340ZM362 340C360.896 340 360 340.896 360 342C360 343.104 360.896 344 362 344C363.104 344 364 343.104 364 342C364 340.896 363.104 340 362 340ZM2 360C0.895508 360 0 360.896 0 362C0 363.104 0.895508 364 2 364C3.10449 364 4 363.104 4 362C4 360.896 3.10449 360 2 360ZM22 360C20.8955 360 20 360.896 20 362C20 363.104 20.8955 364 22 364C23.1045 364 24 363.104 24 362C24 360.896 23.1045 360 22 360ZM42 360C40.8955 360 40 360.896 40 362C40 363.104 40.8955 364 42 364C43.1045 364 44 363.104 44 362C44 360.896 43.1045 360 42 360ZM62 360C60.8955 360 60 360.896 60 362C60 363.104 60.8955 364 62 364C63.1045 364 64 363.104 64 362C64 360.896 63.1045 360 62 360ZM82 360C80.8955 360 80 360.896 80 362C80 363.104 80.8955 364 82 364C83.1045 364 84 363.104 84 362C84 360.896 83.1045 360 82 360ZM102 360C100.896 360 100 360.896 100 362C100 363.104 100.896 364 102 364C103.104 364 104 363.104 104 362C104 360.896 103.104 360 102 360ZM122 360C120.896 360 120 360.896 120 362C120 363.104 120.896 364 122 364C123.104 364 124 363.104 124 362C124 360.896 123.104 360 122 360ZM142 360C140.896 360 140 360.896 140 362C140 363.104 140.896 364 142 364C143.104 364 144 363.104 144 362C144 360.896 143.104 360 142 360ZM162 360C160.896 360 160 360.896 160 362C160 363.104 160.896 364 162 364C163.104 364 164 363.104 164 362C164 360.896 163.104 360 162 360ZM182 360C180.896 360 180 360.896 180 362C180 363.104 180.896 364 182 364C183.104 364 184 363.104 184 362C184 360.896 183.104 360 182 360ZM202 360C200.896 360 200 360.896 200 362C200 363.104 200.896 364 202 364C203.104 364 204 363.104 204 362C204 360.896 203.104 360 202 360ZM222 360C220.896 360 220 360.896 220 362C220 363.104 220.896 364 222 364C223.104 364 224 363.104 224 362C224 360.896 223.104 360 222 360ZM242 360C240.896 360 240 360.896 240 362C240 363.104 240.896 364 242 364C243.104 364 244 363.104 244 362C244 360.896 243.104 360 242 360ZM262 360C260.896 360 260 360.896 260 362C260 363.104 260.896 364 262 364C263.104 364 264 363.104 264 362C264 360.896 263.104 360 262 360ZM282 360C280.896 360 280 360.896 280 362C280 363.104 280.896 364 282 364C283.104 364 284 363.104 284 362C284 360.896 283.104 360 282 360ZM302 360C300.896 360 300 360.896 300 362C300 363.104 300.896 364 302 364C303.104 364 304 363.104 304 362C304 360.896 303.104 360 302 360ZM322 360C320.896 360 320 360.896 320 362C320 363.104 320.896 364 322 364C323.104 364 324 363.104 324 362C324 360.896 323.104 360 322 360ZM342 360C340.896 360 340 360.896 340 362C340 363.104 340.896 364 342 364C343.104 364 344 363.104 344 362C344 360.896 343.104 360 342 360ZM362 360C360.896 360 360 360.896 360 362C360 363.104 360.896 364 362 364C363.104 364 364 363.104 364 362C364 360.896 363.104 360 362 360Z" clip-rule="evenodd" fill="#FFFFFF" fill-opacity="1.000000" fill-rule="evenodd"/>
</svg>
