<svg width="104.000000" height="104.000000" viewBox="0 0 104 104" fill="none" xmlns="http://www.w3.org/2000/svg" xmlns:xlink="http://www.w3.org/1999/xlink">
	<desc>
			Created with Pixso.
	</desc>
	<defs>
		<filter id="filter_412_882_dd" x="0.000000" y="0.000000" width="104.000000" height="104.000000" filterUnits="userSpaceOnUse" color-interpolation-filters="sRGB">
			<feFlood flood-opacity="0" result="BackgroundImageFix"/>
			<feColorMatrix in="SourceAlpha" type="matrix" values="0 0 0 0 0 0 0 0 0 0 0 0 0 0 0 0 0 0 127 0" result="hardAlpha"/>
			<feOffset dx="0" dy="10"/>
			<feGaussianBlur stdDeviation="10.3333"/>
			<feComposite in2="hardAlpha" operator="out" k2="-1" k3="1"/>
			<feColorMatrix type="matrix" values="0 0 0 0 0.058824 0 0 0 0 0.058824 0 0 0 0 0.066667 0 0 0 0.2 0"/>
			<feBlend mode="normal" in2="BackgroundImageFix" result="effect_dropShadow_1"/>
			<feBlend mode="normal" in="SourceGraphic" in2="effect_dropShadow_1" result="shape"/>
		</filter>
	</defs>
	<g filter="url(#filter_412_882_dd)">
		<rect id="Rectangle 38" x="31.000000" y="21.000000" width="42.000000" height="42.000000" fill="#fff" fill-opacity="1.000000"/>
	</g>
	<path id="Vector" d="M40.57 43.32L43.28 54.1L60.71 54.1L63.42 43.32L65 43.32L65 37.23L58.99 37.23L56.05 30L54.36 30.65L57.01 37.26L46.95 37.26L49.63 30.65L47.94 30L45 37.23L39 37.23L39 43.32L40.57 43.32ZM63.19 39.06L63.19 41.55L40.83 41.55L40.83 39.06L63.19 39.06ZM61.58 43.35L59.31 52.32L44.71 52.32L42.43 43.35L61.58 43.35ZM47.59 44.83L49.43 44.83L49.43 51.27L47.59 51.27L47.59 44.83ZM51.09 44.83L52.93 44.83L52.93 51.27L51.09 51.27L51.09 44.83ZM56.43 44.83L54.59 44.83L54.59 51.27L56.43 51.27L56.43 44.83Z" fill="#000000" fill-opacity="1.000000" fill-rule="evenodd"/>
</svg>
