<svg width="135.000000" height="24.000000" viewBox="0 0 135 24" fill="none" xmlns="http://www.w3.org/2000/svg" xmlns:xlink="http://www.w3.org/1999/xlink">
	<desc>
			Created with Pixso.
	</desc>
	<defs/>
	<path id="Vector" d="M17.73 16.84L8.03 0.38L0 0.38L0 23.73L5.96 23.73L5.96 7.72L15.58 23.73L19.88 23.73L29.5 7.72L29.5 23.73L35.46 23.73L35.46 0.38L27.43 0.38L17.73 16.84ZM38.29 23.69L44.25 23.69L44.25 0.38L38.29 0.38L38.29 23.69ZM63.91 0.38L47.12 0.38L47.12 23.73L63.91 23.73C69.91 23.73 75.15 20 75.15 12.05C75.15 4.1 69.87 0.38 63.91 0.38ZM53.08 9.54C53.08 10.19 52.74 10.76 52.21 11.06C52.03 11.18 51.91 11.37 51.91 11.56L51.91 17.19C51.91 17.53 51.65 17.76 51.35 17.76C51.01 17.76 50.78 17.49 50.78 17.19L50.78 11.56C50.78 11.33 50.67 11.14 50.48 11.06C49.95 10.76 49.61 10.19 49.61 9.54L49.61 7.79C49.61 6.8 50.4 6.04 51.35 6.04C52.29 6.04 53.08 6.84 53.08 7.79L53.08 9.54ZM60.36 18.71C56.7 18.71 53.76 15.74 53.76 12.05C53.76 8.36 56.7 5.4 60.36 5.4C64.02 5.4 66.97 8.36 66.97 12.05C66.97 15.7 63.99 18.71 60.36 18.71ZM71.23 10.11C71.23 10.45 70.97 10.68 70.66 10.68C70.36 10.68 70.1 10.95 70.1 11.25L70.1 17.15C70.1 17.49 69.83 17.72 69.53 17.72C69.19 17.72 68.97 17.45 68.97 17.15L68.97 11.29C68.97 10.95 68.7 10.72 68.4 10.72C68.06 10.72 67.83 10.45 67.83 10.15L67.83 6.5C67.83 6.31 67.99 6.12 68.21 6.12C68.44 6.12 68.59 6.27 68.59 6.5L68.59 9.54L69.23 9.54L69.23 6.5C69.23 6.31 69.38 6.12 69.61 6.12C69.8 6.12 69.98 6.27 69.98 6.5L69.98 9.54L70.63 9.54L70.63 6.5C70.63 6.31 70.78 6.12 71 6.12C71.23 6.12 71.38 6.27 71.38 6.5L71.38 10.11L71.23 10.11ZM120.28 9.62C113.53 9.2 112.13 8.9 112.13 7.07C112.13 5.32 113.53 4.79 119.37 4.79C125.56 4.79 128.09 5.43 128.09 7.98L134.05 7.98C134.05 2.2 128.77 0 120.02 0C111.34 0 106.17 1.63 106.17 6.77C106.17 12.01 110.17 13.61 120.24 14.07C127.75 14.45 129.07 14.75 129.07 16.69C129.07 18.52 127.18 19.24 120.92 19.24C113.38 19.24 111.41 18.1 111.41 15.63L105.45 15.63C105.45 22.36 111.11 24 120.58 24C129.15 24 134.99 22.74 134.99 16.5C135.07 10.64 129.41 10.15 120.28 9.62ZM85.3 0.38L73.38 23.73L79.95 23.73L82.44 18.75L96.28 18.75L98.77 23.73L105.34 23.73L93.34 0.38L85.3 0.38ZM84.59 14.26L89.3 4.79L93.98 14.26L84.59 14.26Z" fill="#6E6E6E" fill-opacity="1.000000" fill-rule="nonzero"/>
</svg>
