<svg width="184.000000" height="184.000000" viewBox="0 0 184 184" fill="none" xmlns="http://www.w3.org/2000/svg" xmlns:xlink="http://www.w3.org/1999/xlink">
	<desc>
			Created with Pixso.
	</desc>
	<defs/>
	<path d="M0 2C0 0.895508 0.895508 0 2 0C3.10449 0 4 0.895508 4 2C4 3.10449 3.10449 4 2 4C0.895508 4 0 3.10449 0 2ZM20 2C20 0.895508 20.8955 0 22 0C23.1045 0 24 0.895508 24 2C24 3.10449 23.1045 4 22 4C20.8955 4 20 3.10449 20 2ZM40 2C40 0.895508 40.8955 0 42 0C43.1045 0 44 0.895508 44 2C44 3.10449 43.1045 4 42 4C40.8955 4 40 3.10449 40 2ZM60 2C60 0.895508 60.8955 0 62 0C63.1045 0 64 0.895508 64 2C64 3.10449 63.1045 4 62 4C60.8955 4 60 3.10449 60 2ZM80 2C80 0.895508 80.8955 0 82 0C83.1045 0 84 0.895508 84 2C84 3.10449 83.1045 4 82 4C80.8955 4 80 3.10449 80 2ZM100 2C100 0.895508 100.896 0 102 0C103.104 0 104 0.895508 104 2C104 3.10449 103.104 4 102 4C100.896 4 100 3.10449 100 2ZM120 2C120 0.895508 120.896 0 122 0C123.104 0 124 0.895508 124 2C124 3.10449 123.104 4 122 4C120.896 4 120 3.10449 120 2ZM140 2C140 0.895508 140.896 0 142 0C143.104 0 144 0.895508 144 2C144 3.10449 143.104 4 142 4C140.896 4 140 3.10449 140 2ZM160 2C160 0.895508 160.896 0 162 0C163.104 0 164 0.895508 164 2C164 3.10449 163.104 4 162 4C160.896 4 160 3.10449 160 2ZM180 2C180 0.895508 180.896 0 182 0C183.104 0 184 0.895508 184 2C184 3.10449 183.104 4 182 4C180.896 4 180 3.10449 180 2ZM0 22C0 20.8955 0.895508 20 2 20C3.10449 20 4 20.8955 4 22C4 23.1045 3.10449 24 2 24C0.895508 24 0 23.1045 0 22ZM20 22C20 20.8955 20.8955 20 22 20C23.1045 20 24 20.8955 24 22C24 23.1045 23.1045 24 22 24C20.8955 24 20 23.1045 20 22ZM40 22C40 20.8955 40.8955 20 42 20C43.1045 20 44 20.8955 44 22C44 23.1045 43.1045 24 42 24C40.8955 24 40 23.1045 40 22ZM60 22C60 20.8955 60.8955 20 62 20C63.1045 20 64 20.8955 64 22C64 23.1045 63.1045 24 62 24C60.8955 24 60 23.1045 60 22ZM80 22C80 20.8955 80.8955 20 82 20C83.1045 20 84 20.8955 84 22C84 23.1045 83.1045 24 82 24C80.8955 24 80 23.1045 80 22ZM100 22C100 20.8955 100.896 20 102 20C103.104 20 104 20.8955 104 22C104 23.1045 103.104 24 102 24C100.896 24 100 23.1045 100 22ZM120 22C120 20.8955 120.896 20 122 20C123.104 20 124 20.8955 124 22C124 23.1045 123.104 24 122 24C120.896 24 120 23.1045 120 22ZM140 22C140 20.8955 140.896 20 142 20C143.104 20 144 20.8955 144 22C144 23.1045 143.104 24 142 24C140.896 24 140 23.1045 140 22ZM160 22C160 20.8955 160.896 20 162 20C163.104 20 164 20.8955 164 22C164 23.1045 163.104 24 162 24C160.896 24 160 23.1045 160 22ZM180 22C180 20.8955 180.896 20 182 20C183.104 20 184 20.8955 184 22C184 23.1045 183.104 24 182 24C180.896 24 180 23.1045 180 22ZM0 42C0 40.8955 0.895508 40 2 40C3.10449 40 4 40.8955 4 42C4 43.1045 3.10449 44 2 44C0.895508 44 0 43.1045 0 42ZM20 42C20 40.8955 20.8955 40 22 40C23.1045 40 24 40.8955 24 42C24 43.1045 23.1045 44 22 44C20.8955 44 20 43.1045 20 42ZM40 42C40 40.8955 40.8955 40 42 40C43.1045 40 44 40.8955 44 42C44 43.1045 43.1045 44 42 44C40.8955 44 40 43.1045 40 42ZM60 42C60 40.8955 60.8955 40 62 40C63.1045 40 64 40.8955 64 42C64 43.1045 63.1045 44 62 44C60.8955 44 60 43.1045 60 42ZM80 42C80 40.8955 80.8955 40 82 40C83.1045 40 84 40.8955 84 42C84 43.1045 83.1045 44 82 44C80.8955 44 80 43.1045 80 42ZM100 42C100 40.8955 100.896 40 102 40C103.104 40 104 40.8955 104 42C104 43.1045 103.104 44 102 44C100.896 44 100 43.1045 100 42ZM120 42C120 40.8955 120.896 40 122 40C123.104 40 124 40.8955 124 42C124 43.1045 123.104 44 122 44C120.896 44 120 43.1045 120 42ZM140 42C140 40.8955 140.896 40 142 40C143.104 40 144 40.8955 144 42C144 43.1045 143.104 44 142 44C140.896 44 140 43.1045 140 42ZM160 42C160 40.8955 160.896 40 162 40C163.104 40 164 40.8955 164 42C164 43.1045 163.104 44 162 44C160.896 44 160 43.1045 160 42ZM180 42C180 40.8955 180.896 40 182 40C183.104 40 184 40.8955 184 42C184 43.1045 183.104 44 182 44C180.896 44 180 43.1045 180 42ZM0 62C0 60.8955 0.895508 60 2 60C3.10449 60 4 60.8955 4 62C4 63.1045 3.10449 64 2 64C0.895508 64 0 63.1045 0 62ZM20 62C20 60.8955 20.8955 60 22 60C23.1045 60 24 60.8955 24 62C24 63.1045 23.1045 64 22 64C20.8955 64 20 63.1045 20 62ZM40 62C40 60.8955 40.8955 60 42 60C43.1045 60 44 60.8955 44 62C44 63.1045 43.1045 64 42 64C40.8955 64 40 63.1045 40 62ZM60 62C60 60.8955 60.8955 60 62 60C63.1045 60 64 60.8955 64 62C64 63.1045 63.1045 64 62 64C60.8955 64 60 63.1045 60 62ZM80 62C80 60.8955 80.8955 60 82 60C83.1045 60 84 60.8955 84 62C84 63.1045 83.1045 64 82 64C80.8955 64 80 63.1045 80 62ZM100 62C100 60.8955 100.896 60 102 60C103.104 60 104 60.8955 104 62C104 63.1045 103.104 64 102 64C100.896 64 100 63.1045 100 62ZM120 62C120 60.8955 120.896 60 122 60C123.104 60 124 60.8955 124 62C124 63.1045 123.104 64 122 64C120.896 64 120 63.1045 120 62ZM140 62C140 60.8955 140.896 60 142 60C143.104 60 144 60.8955 144 62C144 63.1045 143.104 64 142 64C140.896 64 140 63.1045 140 62ZM160 62C160 60.8955 160.896 60 162 60C163.104 60 164 60.8955 164 62C164 63.1045 163.104 64 162 64C160.896 64 160 63.1045 160 62ZM180 62C180 60.8955 180.896 60 182 60C183.104 60 184 60.8955 184 62C184 63.1045 183.104 64 182 64C180.896 64 180 63.1045 180 62ZM0 82C0 80.8955 0.895508 80 2 80C3.10449 80 4 80.8955 4 82C4 83.1045 3.10449 84 2 84C0.895508 84 0 83.1045 0 82ZM20 82C20 80.8955 20.8955 80 22 80C23.1045 80 24 80.8955 24 82C24 83.1045 23.1045 84 22 84C20.8955 84 20 83.1045 20 82ZM40 82C40 80.8955 40.8955 80 42 80C43.1045 80 44 80.8955 44 82C44 83.1045 43.1045 84 42 84C40.8955 84 40 83.1045 40 82ZM60 82C60 80.8955 60.8955 80 62 80C63.1045 80 64 80.8955 64 82C64 83.1045 63.1045 84 62 84C60.8955 84 60 83.1045 60 82ZM80 82C80 80.8955 80.8955 80 82 80C83.1045 80 84 80.8955 84 82C84 83.1045 83.1045 84 82 84C80.8955 84 80 83.1045 80 82ZM100 82C100 80.8955 100.896 80 102 80C103.104 80 104 80.8955 104 82C104 83.1045 103.104 84 102 84C100.896 84 100 83.1045 100 82ZM120 82C120 80.8955 120.896 80 122 80C123.104 80 124 80.8955 124 82C124 83.1045 123.104 84 122 84C120.896 84 120 83.1045 120 82ZM140 82C140 80.8955 140.896 80 142 80C143.104 80 144 80.8955 144 82C144 83.1045 143.104 84 142 84C140.896 84 140 83.1045 140 82ZM160 82C160 80.8955 160.896 80 162 80C163.104 80 164 80.8955 164 82C164 83.1045 163.104 84 162 84C160.896 84 160 83.1045 160 82ZM180 82C180 80.8955 180.896 80 182 80C183.104 80 184 80.8955 184 82C184 83.1045 183.104 84 182 84C180.896 84 180 83.1045 180 82ZM0 102C0 100.896 0.895508 100 2 100C3.10449 100 4 100.896 4 102C4 103.104 3.10449 104 2 104C0.895508 104 0 103.104 0 102ZM20 102C20 100.896 20.8955 100 22 100C23.1045 100 24 100.896 24 102C24 103.104 23.1045 104 22 104C20.8955 104 20 103.104 20 102ZM40 102C40 100.896 40.8955 100 42 100C43.1045 100 44 100.896 44 102C44 103.104 43.1045 104 42 104C40.8955 104 40 103.104 40 102ZM60 102C60 100.896 60.8955 100 62 100C63.1045 100 64 100.896 64 102C64 103.104 63.1045 104 62 104C60.8955 104 60 103.104 60 102ZM80 102C80 100.896 80.8955 100 82 100C83.1045 100 84 100.896 84 102C84 103.104 83.1045 104 82 104C80.8955 104 80 103.104 80 102ZM100 102C100 100.896 100.896 100 102 100C103.104 100 104 100.896 104 102C104 103.104 103.104 104 102 104C100.896 104 100 103.104 100 102ZM120 102C120 100.896 120.896 100 122 100C123.104 100 124 100.896 124 102C124 103.104 123.104 104 122 104C120.896 104 120 103.104 120 102ZM140 102C140 100.896 140.896 100 142 100C143.104 100 144 100.896 144 102C144 103.104 143.104 104 142 104C140.896 104 140 103.104 140 102ZM160 102C160 100.896 160.896 100 162 100C163.104 100 164 100.896 164 102C164 103.104 163.104 104 162 104C160.896 104 160 103.104 160 102ZM180 102C180 100.896 180.896 100 182 100C183.104 100 184 100.896 184 102C184 103.104 183.104 104 182 104C180.896 104 180 103.104 180 102ZM0 122C0 120.896 0.895508 120 2 120C3.10449 120 4 120.896 4 122C4 123.104 3.10449 124 2 124C0.895508 124 0 123.104 0 122ZM20 122C20 120.896 20.8955 120 22 120C23.1045 120 24 120.896 24 122C24 123.104 23.1045 124 22 124C20.8955 124 20 123.104 20 122ZM40 122C40 120.896 40.8955 120 42 120C43.1045 120 44 120.896 44 122C44 123.104 43.1045 124 42 124C40.8955 124 40 123.104 40 122ZM60 122C60 120.896 60.8955 120 62 120C63.1045 120 64 120.896 64 122C64 123.104 63.1045 124 62 124C60.8955 124 60 123.104 60 122ZM80 122C80 120.896 80.8955 120 82 120C83.1045 120 84 120.896 84 122C84 123.104 83.1045 124 82 124C80.8955 124 80 123.104 80 122ZM100 122C100 120.896 100.896 120 102 120C103.104 120 104 120.896 104 122C104 123.104 103.104 124 102 124C100.896 124 100 123.104 100 122ZM120 122C120 120.896 120.896 120 122 120C123.104 120 124 120.896 124 122C124 123.104 123.104 124 122 124C120.896 124 120 123.104 120 122ZM140 122C140 120.896 140.896 120 142 120C143.104 120 144 120.896 144 122C144 123.104 143.104 124 142 124C140.896 124 140 123.104 140 122ZM160 122C160 120.896 160.896 120 162 120C163.104 120 164 120.896 164 122C164 123.104 163.104 124 162 124C160.896 124 160 123.104 160 122ZM180 122C180 120.896 180.896 120 182 120C183.104 120 184 120.896 184 122C184 123.104 183.104 124 182 124C180.896 124 180 123.104 180 122ZM0 142C0 140.896 0.895508 140 2 140C3.10449 140 4 140.896 4 142C4 143.104 3.10449 144 2 144C0.895508 144 0 143.104 0 142ZM20 142C20 140.896 20.8955 140 22 140C23.1045 140 24 140.896 24 142C24 143.104 23.1045 144 22 144C20.8955 144 20 143.104 20 142ZM40 142C40 140.896 40.8955 140 42 140C43.1045 140 44 140.896 44 142C44 143.104 43.1045 144 42 144C40.8955 144 40 143.104 40 142ZM60 142C60 140.896 60.8955 140 62 140C63.1045 140 64 140.896 64 142C64 143.104 63.1045 144 62 144C60.8955 144 60 143.104 60 142ZM80 142C80 140.896 80.8955 140 82 140C83.1045 140 84 140.896 84 142C84 143.104 83.1045 144 82 144C80.8955 144 80 143.104 80 142ZM100 142C100 140.896 100.896 140 102 140C103.104 140 104 140.896 104 142C104 143.104 103.104 144 102 144C100.896 144 100 143.104 100 142ZM120 142C120 140.896 120.896 140 122 140C123.104 140 124 140.896 124 142C124 143.104 123.104 144 122 144C120.896 144 120 143.104 120 142ZM140 142C140 140.896 140.896 140 142 140C143.104 140 144 140.896 144 142C144 143.104 143.104 144 142 144C140.896 144 140 143.104 140 142ZM160 142C160 140.896 160.896 140 162 140C163.104 140 164 140.896 164 142C164 143.104 163.104 144 162 144C160.896 144 160 143.104 160 142ZM180 142C180 140.896 180.896 140 182 140C183.104 140 184 140.896 184 142C184 143.104 183.104 144 182 144C180.896 144 180 143.104 180 142ZM0 162C0 160.896 0.895508 160 2 160C3.10449 160 4 160.896 4 162C4 163.104 3.10449 164 2 164C0.895508 164 0 163.104 0 162ZM20 162C20 160.896 20.8955 160 22 160C23.1045 160 24 160.896 24 162C24 163.104 23.1045 164 22 164C20.8955 164 20 163.104 20 162ZM40 162C40 160.896 40.8955 160 42 160C43.1045 160 44 160.896 44 162C44 163.104 43.1045 164 42 164C40.8955 164 40 163.104 40 162ZM60 162C60 160.896 60.8955 160 62 160C63.1045 160 64 160.896 64 162C64 163.104 63.1045 164 62 164C60.8955 164 60 163.104 60 162ZM80 162C80 160.896 80.8955 160 82 160C83.1045 160 84 160.896 84 162C84 163.104 83.1045 164 82 164C80.8955 164 80 163.104 80 162ZM100 162C100 160.896 100.896 160 102 160C103.104 160 104 160.896 104 162C104 163.104 103.104 164 102 164C100.896 164 100 163.104 100 162ZM120 162C120 160.896 120.896 160 122 160C123.104 160 124 160.896 124 162C124 163.104 123.104 164 122 164C120.896 164 120 163.104 120 162ZM140 162C140 160.896 140.896 160 142 160C143.104 160 144 160.896 144 162C144 163.104 143.104 164 142 164C140.896 164 140 163.104 140 162ZM160 162C160 160.896 160.896 160 162 160C163.104 160 164 160.896 164 162C164 163.104 163.104 164 162 164C160.896 164 160 163.104 160 162ZM180 162C180 160.896 180.896 160 182 160C183.104 160 184 160.896 184 162C184 163.104 183.104 164 182 164C180.896 164 180 163.104 180 162ZM0 182C0 180.896 0.895508 180 2 180C3.10449 180 4 180.896 4 182C4 183.104 3.10449 184 2 184C0.895508 184 0 183.104 0 182ZM20 182C20 180.896 20.8955 180 22 180C23.1045 180 24 180.896 24 182C24 183.104 23.1045 184 22 184C20.8955 184 20 183.104 20 182ZM40 182C40 180.896 40.8955 180 42 180C43.1045 180 44 180.896 44 182C44 183.104 43.1045 184 42 184C40.8955 184 40 183.104 40 182ZM60 182C60 180.896 60.8955 180 62 180C63.1045 180 64 180.896 64 182C64 183.104 63.1045 184 62 184C60.8955 184 60 183.104 60 182ZM80 182C80 180.896 80.8955 180 82 180C83.1045 180 84 180.896 84 182C84 183.104 83.1045 184 82 184C80.8955 184 80 183.104 80 182ZM100 182C100 180.896 100.896 180 102 180C103.104 180 104 180.896 104 182C104 183.104 103.104 184 102 184C100.896 184 100 183.104 100 182ZM120 182C120 180.896 120.896 180 122 180C123.104 180 124 180.896 124 182C124 183.104 123.104 184 122 184C120.896 184 120 183.104 120 182ZM140 182C140 180.896 140.896 180 142 180C143.104 180 144 180.896 144 182C144 183.104 143.104 184 142 184C140.896 184 140 183.104 140 182ZM160 182C160 180.896 160.896 180 162 180C163.104 180 164 180.896 164 182C164 183.104 163.104 184 162 184C160.896 184 160 183.104 160 182ZM180 182C180 180.896 180.896 180 182 180C183.104 180 184 180.896 184 182C184 183.104 183.104 184 182 184C180.896 184 180 183.104 180 182Z" clip-rule="evenodd" fill="#FFFFFF" fill-opacity="1.000000" fill-rule="evenodd"/>
</svg>
